<svg width="20" height="20" viewBox="0 0 20 20" fill="none" xmlns="http://www.w3.org/2000/svg">
<path d="M16.4583 1.66667H3.54166C2.50832 1.66667 1.66666 2.50834 1.66666 3.54167V16.4583C1.66666 17.4917 2.50832 18.3333 3.54166 18.3333H16.4583C17.4917 18.3333 18.3333 17.4917 18.3333 16.4583V3.54167C18.3333 2.50834 17.4917 1.66667 16.4583 1.66667ZM3.54166 2.91667H16.4583C16.8025 2.91667 17.0833 3.19751 17.0833 3.54167V11.605L13.8683 8.39001C13.7517 8.27334 13.5933 8.20667 13.4267 8.20667H13.4242C13.2575 8.20667 13.0967 8.27334 12.9808 8.39334L9.38332 12.0467L7.87249 10.5417C7.75582 10.425 7.59749 10.3583 7.43082 10.3583C7.26999 10.3333 7.10166 10.425 6.98499 10.5475L2.91666 14.7017V3.54167C2.91666 3.19751 3.19749 2.91667 3.54166 2.91667ZM2.92166 16.4833L7.43666 11.8717L12.6717 17.0833H3.54166C3.20666 17.0833 2.93582 16.815 2.92166 16.4833ZM16.4583 17.0833H14.4417L10.2692 12.9275L13.4292 9.71917L17.0833 13.3725V16.4583C17.0833 16.8025 16.8025 17.0833 16.4583 17.0833Z" fill="#1D9BF0"/>
<path d="M7.38998 8.20918C8.09967 8.20918 8.67498 7.63386 8.67498 6.92418C8.67498 6.21449 8.09967 5.63918 7.38998 5.63918C6.68029 5.63918 6.10498 6.21449 6.10498 6.92418C6.10498 7.63386 6.68029 8.20918 7.38998 8.20918Z" fill="#1D9BF0"/>
</svg>
