<svg width="64" height="20" viewBox="0 0 64 20" fill="none" xmlns="http://www.w3.org/2000/svg">
<rect width="64" height="20" fill="#202327"/>
<path d="M24 6.84167C22.2583 6.84167 20.8417 8.25834 20.8417 10C20.8417 11.7417 22.2583 13.1583 24 13.1583C25.7417 13.1583 27.1583 11.7417 27.1583 10C27.1583 8.25834 25.7417 6.84167 24 6.84167ZM24 11.9083C22.9483 11.9083 22.0917 11.0533 22.0917 10C22.0917 8.94668 22.95 8.09167 24 8.09167C25.05 8.09167 25.9083 8.94668 25.9083 10C25.9083 11.0533 25.0517 11.9083 24 11.9083Z" fill="#EFF3F4"/>
<path d="M24.3 18.6458H23.6984C22.7125 18.6458 21.9034 17.9058 21.8134 16.9258L21.8017 16.8033C21.7809 16.5642 21.6292 16.3592 21.4084 16.2667C21.17 16.1667 20.9234 16.2125 20.7434 16.3625L20.6467 16.4433C19.9234 17.0475 18.7692 16.9958 18.0967 16.3267L17.6717 15.9017C16.975 15.2017 16.925 14.1067 17.555 13.3517L17.6367 13.2533C17.7917 13.0683 17.8284 12.8175 17.7384 12.5975C17.6467 12.3708 17.44 12.2192 17.2 12.1975L17.075 12.1858C16.0917 12.0967 15.3525 11.2858 15.3525 10.3008V9.69917C15.3525 8.71334 16.0925 7.90417 17.0725 7.81417L17.2025 7.80251C17.44 7.78167 17.6442 7.63001 17.7375 7.40834C17.8292 7.18334 17.7917 6.93084 17.6375 6.74584L17.5592 6.64917C16.9284 5.89251 16.9775 4.79667 17.6734 4.09917L18.1 3.67251C18.77 3.00251 19.9234 2.95167 20.65 3.55584L20.7467 3.63751C20.9284 3.79084 21.1867 3.82917 21.405 3.73917C21.63 3.64584 21.7817 3.44084 21.8025 3.20334L21.8142 3.07584C21.9034 2.09251 22.7142 1.35417 23.6992 1.35417H24.3009C25.2867 1.35417 26.0959 2.09417 26.1859 3.07417L26.1975 3.20417C26.2184 3.44167 26.3692 3.64584 26.5909 3.73751C26.8217 3.83501 27.0742 3.78917 27.2525 3.64001L27.3525 3.55501C28.075 2.9525 29.2309 3.00334 29.9025 3.67167L30.3275 4.09834C31.0242 4.79667 31.0742 5.89251 30.4442 6.64834L30.3609 6.74667C30.2042 6.93001 30.1659 7.18167 30.2584 7.40334C30.3517 7.62834 30.5584 7.77834 30.7967 7.80167L30.9234 7.81334C31.9067 7.90251 32.6459 8.71334 32.6459 9.69834V10.3008C32.6459 11.2867 31.9059 12.0958 30.9259 12.1858L30.7967 12.1975C30.56 12.2175 30.355 12.3683 30.2634 12.5892C30.1692 12.8158 30.2075 13.0675 30.3609 13.2517L30.4442 13.3517C31.0742 14.1058 31.0242 15.2017 30.3275 15.9017L29.9025 16.3267C29.23 16.9967 28.0775 17.0467 27.3525 16.4433L27.2567 16.3633C27.0759 16.2108 26.815 16.1717 26.5984 16.2617C26.3709 16.3567 26.2192 16.5617 26.1984 16.8L26.1867 16.925C26.0975 17.9025 25.2867 18.6417 24.3017 18.6417L24.3 18.6458ZM21.1559 14.9625C21.4059 14.9625 21.65 15.0125 21.8809 15.1083C22.5392 15.3817 22.9842 15.9867 23.0475 16.6883L23.0592 16.8108C23.09 17.1442 23.365 17.3942 23.7009 17.3942H24.3025C24.6359 17.3942 24.9109 17.1442 24.9425 16.8108L24.9542 16.6875C25.0175 15.9858 25.4625 15.3817 26.1142 15.1108C26.775 14.8358 27.5275 14.9592 28.0584 15.4025L28.1525 15.4808C28.3009 15.6042 28.4575 15.6308 28.5634 15.6308C28.735 15.6308 28.8967 15.5642 29.0184 15.4417L29.4434 15.0167C29.68 14.78 29.6975 14.4083 29.4834 14.1517L29.4 14.0517C28.9484 13.51 28.8359 12.7683 29.1067 12.1158C29.3784 11.4575 29.9834 11.0158 30.685 10.9517L30.8142 10.94C31.145 10.9092 31.3975 10.6342 31.3975 10.2983V9.69667C31.3975 9.36334 31.145 9.08834 30.8125 9.05667L30.6859 9.04501C29.9809 8.98001 29.3775 8.53667 29.1067 7.88417C28.835 7.22751 28.9484 6.48584 29.4009 5.945L29.4842 5.84667C29.6984 5.58834 29.6809 5.21667 29.4442 4.98001L29.0192 4.55501C28.8975 4.43251 28.7359 4.36584 28.5642 4.36584C28.4584 4.36584 28.3017 4.39251 28.1542 4.51584L28.0542 4.59917C27.5259 5.03917 26.7625 5.15751 26.1192 4.89417C25.4625 4.62167 25.0192 4.01751 24.955 3.31417L24.9434 3.18501C24.9142 2.85417 24.6392 2.60167 24.3042 2.60167H23.7017C23.3684 2.60167 23.0934 2.85417 23.0617 3.18667L23.05 3.31334C22.9867 4.01584 22.5434 4.62001 21.8917 4.89084C21.2359 5.16251 20.4809 5.04334 19.95 4.59917L19.8517 4.51917C19.7017 4.39417 19.545 4.36917 19.4392 4.36917C19.2675 4.36917 19.1059 4.43584 18.9842 4.55751L18.5575 4.98251C18.3225 5.21917 18.305 5.59084 18.5192 5.84751L18.6025 5.94584C19.0525 6.49001 19.1667 7.23251 18.8959 7.88334C18.6234 8.54001 18.0192 8.98334 17.3167 9.04751L17.1867 9.05917C16.8559 9.09001 16.6034 9.36501 16.6034 9.70084V10.3025C16.6034 10.6358 16.8559 10.9108 17.1884 10.9425L17.3134 10.9542C18.02 11.0192 18.6242 11.4642 18.8942 12.1175C19.165 12.7725 19.0525 13.5133 18.6 14.055L18.52 14.1508C18.3034 14.4092 18.3217 14.7808 18.5584 15.0175L18.9834 15.4425C19.105 15.565 19.2667 15.6317 19.4384 15.6317C19.5442 15.6317 19.7009 15.6067 19.8484 15.4817L19.945 15.4017C20.2834 15.1217 20.7142 14.965 21.1559 14.965V14.9625Z" fill="#EFF3F4"/>
</svg>
